<?xml version="1.0" encoding="UTF-8"?><svg id="a" xmlns="http://www.w3.org/2000/svg" viewBox="0 0 1410.96 351.27"><polygon points="0 258.93 184.3 258.93 184.3 351.27 276.27 351.27 276.27 184.38 92.3 184.38 276.27 0 184.3 0 0 184.38 0 258.93" style="fill:#fff;"/><polygon points="315.97 92.3 408.01 0 315.97 0 315.97 92.3" style="fill:#fff;"/><polygon points="408.01 92.3 315.97 184.38 315.97 276.38 408.01 276.38 408.01 184.38 500.31 92.3 500.31 0 408.01 0 408.01 92.3" style="fill:#fff;"/><polygon points="500.31 184.38 408.01 276.38 500.31 276.38 500.31 184.38" style="fill:#fff;"/><path d="M654.39,207.28l-4.84,39.44h15.28l-1.18,9.55h-26.59l6-49h11.33Z" style="fill:#fff;"/><path d="M680.12,233.43l-14.32-26.15h12.93l8,15.2,11.68-15.2h13.8l-20.79,26.15-2.79,22.84h-11.32l2.81-22.84Z" style="fill:#fff;"/><path d="M756,212.56c4.57,4.64,7.05,10.93,6.89,17.44,0,7-2.42,14.55-7.57,19.84-6.17,6.31-13.88,7.56-20.27,7.56s-12.86-1.1-18.66-7c-4.49-4.56-6.97-10.72-6.9-17.11-.15-7.4,2.77-14.53,8.08-19.69,6.24-5.95,13.81-7.42,20.12-7.42,9.43,.03,15.06,3.3,18.31,6.38Zm-30.41,8.75c-2.85,3.05-4.44,7.06-4.45,11.23-.34,7.64,5.57,14.11,13.21,14.46h.05c.47,.03,.94,.03,1.41,0,3.31,0,7.35-.51,11-4.19,3-3.27,4.63-7.56,4.55-12,.18-3.82-1.23-7.54-3.89-10.29-2.73-2.58-6.39-3.95-10.14-3.82-4.4-.22-8.68,1.46-11.76,4.61h.02Z" style="fill:#fff;"/><path d="M768.25,256.27l6.1-49h9.84l22.55,31.94,4-31.88h11.26l-6,49h-9.9l-22.69-32-3.9,32-11.26-.06Z" style="fill:#fff;"/><path d="M669.75,323.45h-18.51l-3.75,9.26h-11.75l19.76-49h10.35l19.32,49h-11.75l-3.67-9.26Zm-3.09-8.66l-6-16.46-6.1,16.46h12.1Z" style="fill:#fff;"/><path d="M700,300v18c0,1.47,.15,3.74,1.84,5.29,1.21,1.07,2.8,1.62,4.41,1.54,1.63,.06,3.23-.49,4.48-1.54,1.54-1.47,1.76-3.68,1.76-5.29v-18h10.62v19.1c0,3.74-.37,7.27-3.68,10.5-3.74,3.67-9.25,4.26-13.14,4.26s-9.48-.59-13.23-4.26c-3-2.94-3.6-6.24-3.6-9.84v-19.76h10.54Z" style="fill:#fff;"/><path d="M738.94,300l8.3,17.55,8.3-17.55h11.58l-16.6,32.76h-6.61l-16.6-32.76h11.63Z" style="fill:#fff;"/><path d="M803.88,318.21h-24.46c.02,2.03,.72,4,2,5.58,1.45,1.41,3.42,2.14,5.44,2,1.48,.03,2.95-.31,4.26-1,1-.68,1.78-1.62,2.27-2.72l10,1c-1.03,3.42-3.27,6.35-6.31,8.23-3.16,1.75-6.75,2.59-10.36,2.42-4.92,0-9.26-.88-13.08-4.7-3.26-3.39-5.03-7.93-4.92-12.63-.06-4.79,1.73-9.42,5-12.93,4-4,8.89-4.7,12.56-4.7s9,.66,13,4.92,4.63,9.25,4.63,13.29l-.03,1.24Zm-9.76-6.36c-.35-1.45-1.08-2.78-2.12-3.85-3.02-2.56-7.49-2.44-10.36,.29-.92,.99-1.56,2.21-1.84,3.53l14.32,.03Z" style="fill:#fff;"/><path d="M810.49,300h10.63v5.14c.94-1.86,2.36-3.43,4.11-4.55,1.71-1.01,3.68-1.5,5.66-1.4,1.17-.02,2.34,.15,3.45,.51l-.59,9.92c-1.46-.79-3.09-1.21-4.75-1.22-2-.07-3.93,.73-5.29,2.2-2.35,2.5-2.57,6-2.57,8.81v13.3h-10.65v-32.71Z" style="fill:#fff;"/><path d="M863.6,300h10.57v30.78c0,4.62-.22,9.84-4,14-4,4.34-10.21,4.85-13.81,4.85-4.33,0-9.55-.66-13.66-4.19-2.61-2.22-4.35-5.28-4.92-8.66h11.53c.34,1.34,1.18,2.49,2.35,3.23,1.39,.78,2.97,1.16,4.56,1.1,1.92,.12,3.82-.51,5.29-1.76,2-2,2.13-5.44,2.13-6.83v-3.75c-1.25,2.06-3.75,4.92-9.77,4.92-5.07,0-9-1.61-12-4.63-3.2-3.32-4.91-7.79-4.75-12.39-.13-4.84,1.62-9.54,4.88-13.12,3.14-3.15,7.45-4.86,11.9-4.7,6,0,8.59,3.15,9.77,4.92l-.07-3.77Zm-13.15,10.26c-1.57,1.64-2.47,3.82-2.5,6.1,0,2.17,.81,4.27,2.28,5.87,1.56,1.59,3.72,2.45,5.95,2.35,2.11,.06,4.17-.7,5.73-2.13,1.67-1.65,2.59-3.9,2.57-6.24,.01-2.26-.89-4.42-2.5-6-1.61-1.34-3.64-2.06-5.73-2.05-2.12-.05-4.18,.68-5.8,2.05v.05Z" style="fill:#fff;"/><path d="M882.4,300h10.6v3.89c2.38-3.17,6.18-4.95,10.14-4.77,2.87,0,6.61,.51,9.41,3.3,3.08,3.09,3.3,7,3.3,9.63v20.71h-10.61v-16.87c0-2.13-.07-4.85-1.76-6.54-1.09-1-2.52-1.53-4-1.47-1.65-.07-3.26,.57-4.41,1.76-1.76,1.77-2,4.12-2,6.25v16.82h-10.67v-32.71Z" style="fill:#fff;"/><path d="M957.62,318.21h-24.5c.02,2.03,.72,4,2,5.58,1.45,1.41,3.42,2.14,5.44,2,1.48,.03,2.95-.31,4.26-1,1-.68,1.78-1.62,2.27-2.72l10,1c-1.03,3.42-3.27,6.35-6.31,8.23-3.16,1.75-6.75,2.59-10.36,2.42-4.92,0-9.26-.88-13.08-4.7-3.26-3.39-5.03-7.93-4.92-12.63-.06-4.79,1.73-9.42,5-12.93,4-4,8.89-4.7,12.56-4.7s9,.66,13,4.92,4.63,9.25,4.63,13.29v1.24Zm-9.76-6.32c-.36-1.44-1.1-2.76-2.13-3.82-3.02-2.56-7.49-2.44-10.36,.29-.92,.99-1.56,2.21-1.84,3.53h14.33Z" style="fill:#fff;"/><path d="M965.33,309.5h18.79v9.25h-18.8v-9.25Z" style="fill:#fff;"/><path d="M1010.36,283.71c6.24,0,10.14,2.06,12.49,4.27,2.87,2.9,4.41,6.86,4.26,10.94,.17,3.72-1.21,7.34-3.82,10-1.92,1.82-4.28,3.11-6.84,3.75l15.06,20.05h-13.81l-13.22-19.32v19.31h-11.31v-49h17.19Zm-5.88,22.29h2.57c2.06,0,4.85-.22,6.76-2.13,1.23-1.28,1.89-3,1.84-4.77,.09-1.94-.76-3.8-2.28-5-1.84-1.39-4.78-1.54-6.24-1.54h-2.65v13.44Z" style="fill:#fff;"/><path d="M1036.8,279.21h10.58v24.68c1.1-1.38,2.46-2.53,4-3.38,1.97-1.03,4.17-1.51,6.39-1.39,2.57,0,6.39,.36,9.25,3.3s3.23,7,3.23,9.55v20.74h-10.57v-16.82c0-2.28-.08-4.92-1.77-6.54-1.14-.99-2.6-1.51-4.11-1.47-1.56-.05-3.07,.53-4.19,1.62-2.13,2-2.2,5.21-2.2,6.83v16.38h-10.58l-.03-53.5Z" style="fill:#fff;"/><path d="M1109.6,328.52c-2.94,2.94-7.94,5.29-14.33,5.29s-11.38-2.35-14.32-5.29c-6.56-6.8-6.56-17.58,0-24.38,2.94-2.94,7.93-5.29,14.32-5.29s11.39,2.35,14.33,5.29c6.56,6.8,6.56,17.58,0,24.38Zm-23.07-33.64l-4.7-5.07,13.44-10.43,13.52,10.43-4.85,5.07-8.67-7-8.74,7Zm2.79,15.33c-3.22,3.48-3.22,8.86,0,12.34,1.59,1.57,3.76,2.42,6,2.35,2.2,.06,4.32-.79,5.87-2.35,3.26-3.47,3.26-8.87,0-12.34-3.35-3.13-8.55-3.13-11.9,0h.03Z" style="fill:#fff;"/><path d="M1121.12,300h10.58v3.89c2.38-3.16,6.17-4.95,10.13-4.77,2.87,0,6.62,.51,9.41,3.3,3.08,3.09,3.3,7,3.3,9.63v20.71h-10.54v-16.87c0-2.13-.07-4.85-1.76-6.54-1.09-1-2.52-1.53-4-1.47-1.65-.07-3.26,.57-4.41,1.76-1.76,1.77-2,4.12-2,6.25v16.82h-10.62l-.09-32.71Z" style="fill:#fff;"/><path d="M1196.35,318.21h-24.46c.02,2.03,.72,4,2,5.58,1.45,1.41,3.42,2.14,5.44,2,1.48,.03,2.95-.31,4.26-1,1-.68,1.78-1.62,2.27-2.72l10,1c-1.03,3.42-3.27,6.35-6.31,8.23-3.18,1.78-6.79,2.63-10.43,2.46-4.92,0-9.26-.88-13.08-4.7-3.26-3.38-5.03-7.93-4.92-12.63-.06-4.79,1.73-9.42,5-12.93,4-4,8.89-4.7,12.56-4.7s9,.66,13,4.92,4.63,9.25,4.63,13.29l.04,1.2Zm-9.77-6.32c-.36-1.44-1.1-2.76-2.13-3.82-3.02-2.56-7.49-2.44-10.36,.29-.92,.99-1.56,2.21-1.84,3.53h14.33Z" style="fill:#fff;"/><path d="M1204.06,309.5h18.81v9.25h-18.81v-9.25Z" style="fill:#fff;"/><path d="M1262.24,323.45h-18.51l-3.75,9.26h-11.75l19.76-49h10.35l19.32,49h-11.75l-3.67-9.26Zm-3.09-8.66l-6-16.46-6.1,16.46h12.1Z" style="fill:#fff;"/><path d="M1292.79,279.21v53.5h-10.57v-53.5h10.57Z" style="fill:#fff;"/><path d="M1311.89,349.53h-10.58v-49.53h10.58v3.89c2.38-3.24,6.19-5.11,10.21-5,4.34-.11,8.53,1.56,11.61,4.62,6.67,7.4,6.54,18.69-.3,25.93-2.89,2.99-6.93,4.6-11.09,4.41-6.54,0-9.33-3.3-10.43-4.85v20.53Zm1.76-39.15c-1.57,1.61-2.46,3.75-2.49,6,0,2.17,.85,4.25,2.35,5.81,1.6,1.58,3.75,2.48,6,2.49,2.1-.02,4.12-.83,5.66-2.27,1.64-1.67,2.56-3.91,2.57-6.25,.05-4.49-3.55-8.17-8.04-8.22h-.19c-2.2-.01-4.32,.87-5.86,2.44Z" style="fill:#fff;"/><path d="M1378.81,318.21h-24.46c.02,2.03,.72,4,2,5.58,1.45,1.41,3.42,2.14,5.44,2,1.48,.03,2.95-.31,4.26-1,1-.67,1.79-1.62,2.28-2.72l10,1c-1.03,3.42-3.28,6.35-6.32,8.23-3.16,1.75-6.75,2.59-10.36,2.42-4.92,0-9.25-.88-13.07-4.7-3.27-3.38-5.04-7.93-4.93-12.63-.06-4.79,1.73-9.42,5-12.93,4-4,8.89-4.7,12.56-4.7s9,.66,13,4.92,4.63,9.25,4.63,13.29l-.03,1.24Zm-9.77-6.32c-.36-1.44-1.09-2.76-2.13-3.82-3.02-2.56-7.49-2.44-10.36,.29-.92,.99-1.56,2.21-1.83,3.53h14.32Z" style="fill:#fff;"/><path d="M1405.47,308.32c-1.74-1.1-3.74-1.73-5.8-1.83-1.09-.04-2.15,.31-3,1-.41,.4-.64,.94-.67,1.51,.03,.64,.42,1.21,1,1.47,1.02,.46,2.07,.83,3.15,1.1l2.8,.88c2,.54,3.86,1.52,5.43,2.87,1.76,1.58,2.7,3.88,2.57,6.24,.08,3.2-1.14,6.31-3.38,8.6-3.23,3.23-7.19,3.74-10.65,3.74-4.91,.19-9.72-1.49-13.44-4.7l4.52-7.2c1.1,.95,2.31,1.76,3.6,2.42,1.37,.67,2.88,1.01,4.41,1,1.15,.08,2.3-.17,3.3-.74,.67-.51,1.08-1.29,1.11-2.13-.01-.81-.47-1.54-1.18-1.91-1.03-.52-2.11-.91-3.23-1.17l-2.65-.81c-1.97-.57-3.78-1.6-5.29-3-1.57-1.58-2.42-3.73-2.35-5.95-.06-2.86,1.09-5.6,3.16-7.57,2.94-2.72,6.91-3.3,9.92-3.3,3.81-.09,7.57,.88,10.87,2.79l-4.2,6.69Z" style="fill:#fff;"/><rect x="594.48" y="183.64" width="7.35" height="91.82" style="fill:#fff;"/></svg>